<svg version="1.1" id="Слой_1" xmlns="http://www.w3.org/2000/svg" xmlns:xlink="http://www.w3.org/1999/xlink" x="0px" y="0px"
	 viewBox="0 0 90 40" style="enable-background:new 0 0 90 40;" xml:space="preserve">
<style type="text/css">
	.st0{fill:#222221;}
</style>
<g id="Mask_Group_11" transform="translate(-1059.035 -1628.923)">
	<path id="Path_672" class="st0" d="M1120.2,1636.1c-0.6-0.2-1.2,0.1-1.4,0.7c-0.1,0.2-0.1,0.5,0,0.8c1.4,2.5,3,4.9,4.8,7.1
		c-18.1-1.8-36.6,2.2-51.9,12.3c-0.3,0.3-0.3,0.7,0,0.9c0.2,0.2,0.5,0.2,0.7,0.2c14.9-8.4,31.4-12.7,48.5-11.6
		c-2.2,1.7-4.3,3.6-6.2,5.7c-0.5,0.4-0.5,1.1-0.1,1.5c0.3,0.4,0.8,0.5,1.3,0.3c6.4-3,13.1-5.4,20-7.2c0.6-0.1,1-0.7,0.8-1.3
		c-0.1-0.3-0.2-0.5-0.5-0.7C1131.2,1641.3,1125.8,1638.4,1120.2,1636.1z M1124.7,1645.2c0.6,0,1.1-0.5,1-1.2c0-0.2-0.1-0.4-0.2-0.6
		c-1-1.3-2-2.7-3-4.1c3.6,1.7,7.1,3.6,10.4,5.8c-4.3,1.2-8.6,2.7-12.7,4.4c1.3-1.1,2.7-2.2,4.2-3.2
		C1124.9,1646.1,1124.8,1645.6,1124.7,1645.2z"/>
</g>
</svg>